<svg width="28" height="19" viewBox="0 0 28 19" fill="none" xmlns="http://www.w3.org/2000/svg">
<path d="M0.541688 0.623999V10.416H2.60569C3.18169 9.048 4.45369 8.136 6.20569 8.136C8.72569 8.136 9.99769 9.576 9.99769 12.048C9.99769 14.424 8.82169 16.2 6.18169 16.2C4.14169 16.2 2.72569 15.12 2.31769 13.296H0.181688C0.613688 16.104 2.70169 18.048 6.15769 18.048C10.2137 18.048 12.0857 15.36 12.0857 12C12.0857 9.312 10.7417 6.264 6.51769 6.264C4.81369 6.264 3.27769 7.032 2.55769 8.016V2.544H10.9817V0.623999H0.541688ZM14.988 9.144C14.988 14.184 16.236 18 21.036 18C25.812 18 27.06 14.184 27.06 9.144C27.06 4.176 25.812 0.383999 21.036 0.383999C16.236 0.383999 14.988 4.176 14.988 9.144ZM24.9 9.144C24.9 12.888 24.444 16.008 21.036 16.008C17.604 16.008 17.148 12.888 17.148 9.144C17.148 5.544 17.604 2.376 21.036 2.376C24.444 2.376 24.9 5.544 24.9 9.144Z" fill="#4B2A63"/>
</svg>
