<svg width="30" height="29" viewBox="0 0 30 29" fill="none" xmlns="http://www.w3.org/2000/svg">
<g clip-path="url(#clip0_11_133)">
<rect width="29" height="29" transform="translate(0.5)" fill="white" fill-opacity="0.69"/>
<path d="M5.79523 0C2.8619 0 0.5 2.3619 0.5 5.29523V23.7048C0.5 26.6381 2.8619 29 5.79523 29H15.7731V17.6628H12.7752V13.5811H15.7731V10.0938C15.7731 7.35405 17.5443 4.83848 21.6247 4.83848C23.2768 4.83848 24.4984 4.99708 24.4984 4.99708L24.4023 8.80878C24.4023 8.80878 23.1564 8.79701 21.7969 8.79701C20.3254 8.79701 20.0895 9.47497 20.0895 10.6005V13.5811H24.5192L24.3262 17.6629H20.0895V29.0001H24.2048C27.1381 29.0001 29.5 26.6382 29.5 23.7048V5.29526C29.5 2.36193 27.1381 2.9e-05 24.2048 2.9e-05H5.7952L5.79523 0Z" fill="black"/>
</g>
<defs>
<clipPath id="clip0_11_133">
<rect width="29" height="29" fill="white" transform="translate(0.5)"/>
</clipPath>
</defs>
</svg>
