<svg width="35" height="34" viewBox="0 0 35 34" fill="none" xmlns="http://www.w3.org/2000/svg">
<rect width="34" height="34" transform="translate(0.499969)" fill="white" fill-opacity="0.69"/>
<path d="M17.4986 10.4507C15.7612 10.4507 14.095 11.1408 12.8666 12.3693C11.6381 13.5978 10.9479 15.264 10.9479 17.0013C10.9479 18.7387 11.6381 20.4049 12.8666 21.6334C14.095 22.8619 15.7612 23.552 17.4986 23.552C19.2359 23.552 20.9021 22.8619 22.1306 21.6334C23.3591 20.4049 24.0492 18.7387 24.0492 17.0013C24.0492 15.264 23.3591 13.5978 22.1306 12.3693C20.9021 11.1408 19.2359 10.4507 17.4986 10.4507ZM17.4986 21.2556C16.3699 21.2556 15.2875 20.8072 14.4894 20.0091C13.6913 19.2111 13.2429 18.1286 13.2429 16.9999C13.2429 15.8713 13.6913 14.7888 14.4894 13.9907C15.2875 13.1926 16.3699 12.7443 17.4986 12.7443C18.6272 12.7443 19.7097 13.1926 20.5078 13.9907C21.3059 14.7888 21.7542 15.8713 21.7542 16.9999C21.7542 18.1286 21.3059 19.2111 20.5078 20.0091C19.7097 20.8072 18.6272 21.2556 17.4986 21.2556Z" fill="black"/>
<path d="M24.3085 11.737C25.1519 11.737 25.8356 11.0532 25.8356 10.2098C25.8356 9.36635 25.1519 8.68262 24.3085 8.68262C23.465 8.68262 22.7813 9.36635 22.7813 10.2098C22.7813 11.0532 23.465 11.737 24.3085 11.737Z" fill="black"/>
<path d="M29.5884 8.65725C29.2604 7.81034 28.7593 7.04123 28.1169 6.39916C27.4746 5.7571 26.7053 5.25621 25.8583 4.92858C24.8671 4.5565 23.82 4.35531 22.7615 4.33358C21.3972 4.27408 20.9651 4.25708 17.5056 4.25708C14.0461 4.25708 13.6027 4.25708 12.2498 4.33358C11.1921 4.3542 10.1457 4.55543 9.15581 4.92858C8.30855 5.25583 7.53906 5.75658 6.8967 6.3987C6.25434 7.04081 5.7533 7.81011 5.42572 8.65725C5.05357 9.64837 4.85284 10.6956 4.83214 11.7541C4.77122 13.1169 4.75281 13.549 4.75281 17.0099C4.75281 20.4694 4.75281 20.91 4.83214 22.2657C4.85339 23.3254 5.05314 24.3709 5.42572 25.364C5.75422 26.2108 6.25574 26.9798 6.89826 27.6218C7.54077 28.2639 8.31015 28.7648 9.15722 29.0927C10.1453 29.4797 11.1921 29.6953 12.2526 29.7302C13.6169 29.7897 14.049 29.8081 17.5085 29.8081C20.968 29.8081 21.4114 29.8081 22.7643 29.7302C23.8227 29.7086 24.8698 29.5079 25.8611 29.1366C26.708 28.8082 27.477 28.3069 28.1193 27.6646C28.7615 27.0224 29.2628 26.2533 29.5912 25.4065C29.9638 24.4148 30.1636 23.3693 30.1848 22.3097C30.2457 20.9468 30.2641 20.5147 30.2641 17.0538C30.2641 13.5929 30.2641 13.1537 30.1848 11.798C30.1683 10.7246 29.9665 9.66202 29.5884 8.65725ZM27.8629 22.1609C27.8538 22.9773 27.7047 23.7862 27.4223 24.5522C27.2096 25.1031 26.8839 25.6034 26.4662 26.0209C26.0485 26.4383 25.548 26.7637 24.997 26.9762C24.2394 27.2573 23.4392 27.4063 22.6311 27.4167C21.2853 27.4791 20.9056 27.4947 17.4546 27.4947C14.0008 27.4947 13.6481 27.4947 12.2767 27.4167C11.4691 27.4069 10.6693 27.2578 9.91231 26.9762C9.35936 26.7651 8.85689 26.4402 8.4374 26.0227C8.01791 25.6052 7.69074 25.1042 7.47706 24.5522C7.19861 23.7944 7.04967 22.9951 7.03647 22.1878C6.97556 20.842 6.96139 20.4623 6.96139 17.0113C6.96139 13.5589 6.96139 13.2062 7.03647 11.8334C7.04563 11.0174 7.19465 10.2091 7.47706 9.4435C7.90914 8.32575 8.79456 7.446 9.91231 7.01816C10.6696 6.73786 11.4693 6.58886 12.2767 6.57758C13.624 6.51666 14.0022 6.49966 17.4546 6.49966C20.9071 6.49966 21.2612 6.49966 22.6311 6.57758C23.4392 6.5873 24.2396 6.73635 24.997 7.01816C25.548 7.23105 26.0483 7.55678 26.466 7.97446C26.8837 8.39213 27.2094 8.89252 27.4223 9.4435C27.7008 10.2013 27.8497 11.0006 27.8629 11.8079C27.9238 13.1552 27.9394 13.5334 27.9394 16.9858C27.9394 20.4368 27.9394 20.808 27.8785 22.1623H27.8629V22.1609Z" fill="black"/>
</svg>
