<svg width="30" height="29" viewBox="0 0 30 29" fill="none" xmlns="http://www.w3.org/2000/svg">
<g clip-path="url(#clip0_11_140)">
<rect width="29" height="29" transform="translate(0.499969)" fill="white" fill-opacity="0.69"/>
<path d="M6.18602 0.00708008C3.06222 0.00708008 0.505585 2.56366 0.505585 5.68751V23.3149C0.505585 26.4387 3.06217 28.9944 6.18602 28.9944H23.8134C26.9372 28.9944 29.4929 26.4387 29.4929 23.3149V5.68751C29.4929 2.56372 26.9372 0.00708008 23.8134 0.00708008H6.18602ZM7.61473 4.79057C9.11252 4.79057 10.0351 5.77385 10.0636 7.06635C10.0636 8.33031 9.11247 9.34122 7.58576 9.34122H7.55766C6.08838 9.34122 5.13871 8.33037 5.13871 7.06635C5.13871 5.77388 6.11711 4.79057 7.6147 4.79057H7.61473ZM20.5221 10.8316C23.4026 10.8316 25.562 12.7143 25.562 16.7602V24.3132H21.1843V17.2666C21.1843 15.4959 20.5508 14.2878 18.9665 14.2878C17.7571 14.2878 17.0362 15.102 16.7197 15.8886C16.6041 16.1701 16.5757 16.5631 16.5757 16.9568V24.3132H12.198C12.198 24.3132 12.2555 12.3764 12.198 11.1405H16.5766V13.0059C17.1583 12.1083 18.1989 10.8315 20.5221 10.8315V10.8316ZM5.39693 11.1414H9.77456V24.3133H5.39693V11.1414Z" fill="black"/>
</g>
<defs>
<clipPath id="clip0_11_140">
<rect width="29" height="29" fill="white" transform="translate(0.499969)"/>
</clipPath>
</defs>
</svg>
