<svg width="30" height="29" viewBox="0 0 30 29" fill="none" xmlns="http://www.w3.org/2000/svg">
<g clip-path="url(#clip0_11_137)">
<rect width="29" height="29" transform="translate(0.499969)" fill="white" fill-opacity="0.69"/>
<path d="M29.0686 5.96549C28.0597 6.41258 26.9758 6.71466 25.8363 6.8512C27.012 6.1477 27.8916 5.04047 28.311 3.73612C27.2064 4.39223 25.9975 4.85406 24.7367 5.10153C23.889 4.19633 22.766 3.59634 21.5423 3.39473C20.3186 3.19312 19.0625 3.40116 17.9692 3.98655C16.8758 4.57194 16.0063 5.50193 15.4956 6.63213C14.9849 7.76234 14.8617 9.02952 15.145 10.2369C12.9068 10.1246 10.7172 9.54282 8.71838 8.52946C6.71955 7.5161 4.95614 6.09377 3.54258 4.35478C3.05924 5.18853 2.78133 6.1552 2.78133 7.1847C2.78079 8.11149 3.00902 9.02408 3.44576 9.8415C3.88251 10.6589 4.51427 11.3559 5.28499 11.8706C4.39116 11.8422 3.51705 11.6007 2.73541 11.1662V11.2387C2.73532 12.5385 3.18495 13.7984 4.00801 14.8044C4.83106 15.8105 5.97685 16.5009 7.25095 16.7583C6.42177 16.9827 5.55244 17.0158 4.70862 16.855C5.06809 17.9734 5.76832 18.9515 6.71127 19.6522C7.65422 20.3529 8.79268 20.7412 9.96729 20.7627C7.97333 22.328 5.51082 23.1771 2.97587 23.1734C2.52683 23.1735 2.07817 23.1473 1.6322 23.0948C4.20532 24.7492 7.20061 25.6273 10.2597 25.6239C20.6151 25.6239 26.2762 17.0471 26.2762 9.60862C26.2762 9.36695 26.2701 9.12287 26.2592 8.8812C27.3604 8.08488 28.3109 7.09878 29.0662 5.96912L29.0686 5.96549Z" fill="black"/>
</g>
<defs>
<clipPath id="clip0_11_137">
<rect width="29" height="29" fill="white" transform="translate(0.499969)"/>
</clipPath>
</defs>
</svg>
