<svg width="68" height="73" viewBox="0 0 68 73" fill="none" xmlns="http://www.w3.org/2000/svg">
<path d="M14.875 0C15.4386 0 15.9791 0.240345 16.3776 0.668163C16.7761 1.09598 17 1.67622 17 2.28125V4.5625H51V2.28125C51 1.67622 51.2239 1.09598 51.6224 0.668163C52.0209 0.240345 52.5614 0 53.125 0C53.6886 0 54.2291 0.240345 54.6276 0.668163C55.0261 1.09598 55.25 1.67622 55.25 2.28125V4.5625H59.5C61.7543 4.5625 63.9163 5.52388 65.5104 7.23515C67.1045 8.94642 68 11.2674 68 13.6875V63.875C68 66.2951 67.1045 68.6161 65.5104 70.3273C63.9163 72.0386 61.7543 73 59.5 73H8.5C6.24566 73 4.08365 72.0386 2.48959 70.3273C0.895533 68.6161 0 66.2951 0 63.875V13.6875C0 11.2674 0.895533 8.94642 2.48959 7.23515C4.08365 5.52388 6.24566 4.5625 8.5 4.5625H12.75V2.28125C12.75 1.67622 12.9739 1.09598 13.3724 0.668163C13.7709 0.240345 14.3114 0 14.875 0V0ZM4.25 18.25V63.875C4.25 65.0851 4.69777 66.2455 5.4948 67.1012C6.29183 67.9568 7.37283 68.4375 8.5 68.4375H59.5C60.6272 68.4375 61.7082 67.9568 62.5052 67.1012C63.3022 66.2455 63.75 65.0851 63.75 63.875V18.25H4.25Z" fill="#4B2A63"/>
</svg>
